STARTFONT 2.3
FONT -FontForge-Fredoka One-Book-R-Normal--20-200-72-72-P-116-ISO10646-1
SIZE 20 72 72  2
FONTBOUNDINGBOX 27 25 -3 -5
COMMENT "Generated by fontforge, http://fontforge.sourceforge.net"
COMMENT "Copyright (c) 2011 Milena B Brandao (milenabbrandao@gmail.com), with Reserved Font Name "Fredoka""
STARTPROPERTIES 40
FOUNDRY "FontForge"
FAMILY_NAME "Fredoka One"
WEIGHT_NAME "Book"
SLANT "R"
SETWIDTH_NAME "Normal"
ADD_STYLE_NAME ""
PIXEL_SIZE 20
POINT_SIZE 200
RESOLUTION_X 72
RESOLUTION_Y 72
SPACING "P"
AVERAGE_WIDTH 116
CHARSET_REGISTRY "ISO10646"
CHARSET_ENCODING "1"
FONTNAME_REGISTRY ""
CHARSET_COLLECTIONS "ISO10646-1"
BITS_PER_PIXEL 2
FONT_NAME "FredokaOne-Regular"
FACE_NAME "Fredoka One"
COPYRIGHT "Copyright (c) 2011 Milena B Brandao (milenabbrandao@gmail.com), with Reserved Font Name "Fredoka""
FONT_VERSION "1.001"
FONT_ASCENT 16
FONT_DESCENT 4
UNDERLINE_POSITION -2
UNDERLINE_THICKNESS 1
X_HEIGHT 10
CAP_HEIGHT 14
RAW_ASCENT 800
RAW_DESCENT 200
NORM_SPACE 5
RELATIVE_WEIGHT 40
RELATIVE_SETWIDTH 50
SUPERSCRIPT_X 0
SUPERSCRIPT_Y 9
SUPERSCRIPT_SIZE 13
SUBSCRIPT_X 0
SUBSCRIPT_Y 2
SUBSCRIPT_SIZE 13
AVG_LOWERCASE_WIDTH 114
AVG_UPPERCASE_WIDTH 139
ENDPROPERTIES
CHARS 235
STARTCHAR space
ENCODING 32
SWIDTH 253 0
DWIDTH 5 0
BBX 1 1 0 0
BITMAP
00
ENDCHAR
STARTCHAR exclam
ENCODING 33
SWIDTH 267 0
DWIDTH 5 0
BBX 4 15 1 0
BITMAP
68
FD
FD
FD
FD
FD
FD
FD
FD
68
00
68
FD
FE
BD
ENDCHAR
STARTCHAR quotedbl
ENCODING 34
SWIDTH 429 0
DWIDTH 9 0
BBX 8 8 0 7
BITMAP
2819
7E3F
7E3F
7E3F
7D3F
3D2E
2C1D
0004
ENDCHAR
STARTCHAR numbersign
ENCODING 35
SWIDTH 749 0
DWIDTH 15 0
BBX 15 15 0 0
BITMAP
00280640
00BD0BC0
00BC0FC0
00FC0F80
1AFEBFE4
3FFFFFF8
2BFEBFA4
02F42F00
02F03F00
7FFFFFE0
BFFFFFE0
6BEABE90
07D0BD00
0BD0BC00
0B80B800
ENDCHAR
STARTCHAR dollar
ENCODING 36
SWIDTH 475 0
DWIDTH 10 0
BBX 9 18 0 -2
BITMAP
005000
01F000
01F000
07F900
2FFF40
3FAF00
7E0500
3F9000
2FFE00
07FF80
001FC0
3D0FC0
7FAF80
2FFF40
07F800
01F000
01F000
009000
ENDCHAR
STARTCHAR percent
ENCODING 37
SWIDTH 838 0
DWIDTH 17 0
BBX 15 17 1 -1
BITMAP
00000600
1A400B00
7FE01E00
FEF43C00
F0B47800
F0B4F000
FEF5D000
7FE3C000
1A4B4540
000F2FE0
002D7FF8
0038B87C
00B4B47C
01E0BDB8
02D07FF4
07801FD0
01000000
ENDCHAR
STARTCHAR ampersand
ENCODING 38
SWIDTH 748 0
DWIDTH 15 0
BBX 15 16 0 0
BITMAP
00150000
02FFD000
0BFFF000
0FE7F400
0FD2F400
0FDBF400
0BFFE000
07FF4000
0FFD0140
2FFE0BE0
7FFF8FD0
7F2FFFC0
7F4FFF90
7FEFFFF4
2FFFFFF4
0BFF9AF4
ENDCHAR
STARTCHAR quotesingle
ENCODING 39
SWIDTH 208 0
DWIDTH 4 0
BBX 4 7 0 8
BITMAP
28
7E
7E
7E
7D
3D
2C
ENDCHAR
STARTCHAR parenleft
ENCODING 40
SWIDTH 384 0
DWIDTH 8 0
BBX 8 21 0 -5
BITMAP
0014
01FD
07FD
0FD0
1F80
2F40
3F00
3E00
7E00
7E00
7E00
7E00
7E00
3E00
3F00
2F40
1F80
0FD0
07FD
01FD
0014
ENDCHAR
STARTCHAR parenright
ENCODING 41
SWIDTH 384 0
DWIDTH 8 0
BBX 7 21 0 -5
BITMAP
1400
BF40
BFC0
0BE0
03F0
02F4
01F8
00F8
00FC
00FC
00FC
00FC
00FC
00F8
01F8
02F4
03F0
0BE0
7FC0
BF40
6400
ENDCHAR
STARTCHAR asterisk
ENCODING 42
SWIDTH 503 0
DWIDTH 10 0
BBX 10 10 0 5
BITMAP
01A400
02F800
2AFA80
BFFFE0
BFFFE0
1FFF40
0FFF40
2FFF80
1F5F40
010400
ENDCHAR
STARTCHAR plus
ENCODING 43
SWIDTH 527 0
DWIDTH 11 0
BBX 10 11 0 0
BITMAP
001000
00F800
01FC00
01FC00
7FFFE0
7FFFF0
7FFFE0
01FC00
01FC00
01F800
001000
ENDCHAR
STARTCHAR comma
ENCODING 44
SWIDTH 238 0
DWIDTH 5 0
BBX 5 7 0 -3
BITMAP
2A00
7F40
7F40
7F00
1E00
3D00
7800
ENDCHAR
STARTCHAR hyphen
ENCODING 45
SWIDTH 433 0
DWIDTH 9 0
BBX 8 4 0 2
BITMAP
7FFE
7FFF
7FFF
0554
ENDCHAR
STARTCHAR period
ENCODING 46
SWIDTH 237 0
DWIDTH 5 0
BBX 5 4 0 0
BITMAP
2900
7F00
7F40
7E00
ENDCHAR
STARTCHAR slash
ENCODING 47
SWIDTH 526 0
DWIDTH 11 0
BBX 10 17 0 -1
BITMAP
000180
0003F0
000BF0
000FE0
002FC0
003F80
007F40
00FE00
01FD00
03F800
07F400
0FE000
1FD000
3F8000
7F4000
BE0000
7D0000
ENDCHAR
STARTCHAR zero
ENCODING 48
SWIDTH 608 0
DWIDTH 12 0
BBX 12 16 0 -1
BITMAP
01AA40
07FFE0
1FFFF4
2FEBFC
3F82FD
7F40FD
7F00FE
7F00FE
7F00FE
7F40FE
7F81FD
3FD7FC
2FFFF8
0BFFF0
02FF80
001400
ENDCHAR
STARTCHAR one
ENCODING 49
SWIDTH 407 0
DWIDTH 8 0
BBX 8 15 0 0
BITMAP
0068
01FD
0BFD
2FFD
7FFD
BFFD
2EFD
01FD
01FD
01FD
01FD
01FD
01FD
01FD
00BC
ENDCHAR
STARTCHAR two
ENCODING 50
SWIDTH 609 0
DWIDTH 12 0
BBX 12 15 0 0
BITMAP
01BA40
0BFFD0
2FFFF4
3FEBFC
7F42FC
7F01FD
7F02FD
140BFC
006FF4
02FFD0
0FFF40
3FFEA4
7FFFFE
7FFFFF
2FFFFE
ENDCHAR
STARTCHAR three
ENCODING 51
SWIDTH 608 0
DWIDTH 12 0
BBX 12 16 0 -1
BITMAP
01BE40
0BFFE0
1FFFF8
2FEBFC
2F41FD
051AFD
007FF8
007FF0
007FFC
1501FD
7F00FE
7F96FD
3FFFFC
1FFFF4
06FF90
001400
ENDCHAR
STARTCHAR four
ENCODING 52
SWIDTH 592 0
DWIDTH 12 0
BBX 11 15 0 0
BITMAP
0640A4
0FE1FC
1FD2FC
1FD2FC
2FC2FC
3F82FC
7F42FC
7FAAFC
BFFFFC
BFFFFC
6AABFC
0002FC
0002FC
0001FC
0001F8
ENDCHAR
STARTCHAR five
ENCODING 53
SWIDTH 530 0
DWIDTH 11 0
BBX 10 16 0 -1
BITMAP
0AAA90
1FFFE0
2FFFE0
3FEA90
3F8000
3FA400
7FFF40
7FFFD0
7FFFE0
190BF0
040BF0
3E5FF0
BFFFE0
7FFFC0
1BFE00
005000
ENDCHAR
STARTCHAR six
ENCODING 54
SWIDTH 560 0
DWIDTH 11 0
BBX 11 16 0 -1
BITMAP
000690
00BFF4
02FFF4
0BFFE0
1FF400
2FC000
3FA900
7FFFD0
7FFFF0
7F9BF8
7F43F8
7F47F8
2FFFF4
1FFFE0
06FF40
001400
ENDCHAR
STARTCHAR seven
ENCODING 55
SWIDTH 561 0
DWIDTH 11 0
BBX 11 15 0 0
BITMAP
2AAAA4
BFFFFC
BFFFFC
7FFFF8
000BF4
001FE0
003FD0
00BF80
01FF00
02FD00
03F800
07F400
0BF000
0BF000
07E000
ENDCHAR
STARTCHAR eight
ENCODING 56
SWIDTH 582 0
DWIDTH 12 0
BBX 11 16 0 -1
BITMAP
01BE40
0BFFD0
2FFFF0
3FEBF8
3F83F8
3FDBF8
1FFFF0
1FFFF0
3FFFF8
7F42FC
7F01FC
7F87FC
3FFFF8
1FFFE0
06FF80
001400
ENDCHAR
STARTCHAR nine
ENCODING 57
SWIDTH 560 0
DWIDTH 11 0
BBX 11 15 0 0
BITMAP
02BA00
0FFFD0
3FFFE0
7F9BF4
7F03F8
7F47F8
3FFFF8
1FFFF8
06FFF4
000BF0
001FE0
1AFFD0
3FFF40
3FFD00
2FA000
ENDCHAR
STARTCHAR colon
ENCODING 58
SWIDTH 238 0
DWIDTH 5 0
BBX 5 10 0 0
BITMAP
7F00
7F40
7F40
1900
0000
0000
2900
7F40
7F40
7E00
ENDCHAR
STARTCHAR semicolon
ENCODING 59
SWIDTH 237 0
DWIDTH 5 0
BBX 5 13 0 -3
BITMAP
7F00
7F40
7F00
2900
0000
0000
2900
7F00
7F40
7F00
1E00
2D00
7800
ENDCHAR
STARTCHAR less
ENCODING 60
SWIDTH 627 0
DWIDTH 13 0
BBX 12 14 0 0
BITMAP
000019
0000BF
0007FF
007FFD
02FFD0
2FFE00
BFF400
BFE000
2FFD00
07FF90
00BFF8
000BFF
0001FF
00001D
ENDCHAR
STARTCHAR equal
ENCODING 61
SWIDTH 478 0
DWIDTH 10 0
BBX 9 7 0 1
BITMAP
7FFF80
7FFFC0
7FFF80
000000
6FFF80
7FFFC0
7FFFC0
ENDCHAR
STARTCHAR greater
ENCODING 62
SWIDTH 627 0
DWIDTH 13 0
BBX 12 14 0 0
BITMAP
280000
7F4000
BFE400
2FFE00
06FFD0
007FF9
000BFF
0007FF
002FFD
02FFE0
1FFE40
7FF400
BF8000
290000
ENDCHAR
STARTCHAR question
ENCODING 63
SWIDTH 512 0
DWIDTH 10 0
BBX 10 15 0 0
BITMAP
06F900
2FFF40
7FFFD0
BF5BE0
7D07E0
000BE0
00BFD0
01FF40
02F800
01A400
000000
01A400
02F800
02FC00
01F800
ENDCHAR
STARTCHAR at
ENCODING 64
SWIDTH 908 0
DWIDTH 18 0
BBX 18 17 0 -3
BITMAP
0001540000
006FFF9000
02FFFFF800
0BF916FE00
1F81966F80
3F0BFF8BC0
7D2FFF87D0
7C7E2F43E0
7C7D1F43E0
7C7EBF03E0
7D3FFF07D0
3E0BEF0BC0
2F402FBF80
1FD00FFE00
07FFD6A400
01BFD00000
0016800000
ENDCHAR
STARTCHAR A
ENCODING 65
SWIDTH 765 0
DWIDTH 15 0
BBX 15 15 0 0
BITMAP
00064000
000FD000
002FE000
003FF400
007FF800
00FFFD00
01FEFE00
03FCBF40
07F87F80
0FFFFFD0
1FFFFFE0
3FFFFFF0
7F8007F8
BF0002FC
7E0001F4
ENDCHAR
STARTCHAR B
ENCODING 66
SWIDTH 646 0
DWIDTH 13 0
BBX 13 15 0 0
BITMAP
1AAA9000
3FFFF800
7FFFFD00
7FFFFE00
7F40BF00
7F40BF00
7F4FFE00
7F4FFE00
7F4AFF00
7F407F40
7F407F40
7FAAFF40
7FFFFF00
7FFFFD00
2FFFE000
ENDCHAR
STARTCHAR C
ENCODING 67
SWIDTH 679 0
DWIDTH 14 0
BBX 13 16 0 -1
BITMAP
001AA400
01FFFF40
07FFFFC0
1FFEBF80
2FE00A00
7F800000
7F400000
7F000000
7F000000
7F400000
3FD00500
1FF96F80
0BFFFFC0
02FFFF80
006FF900
00004000
ENDCHAR
STARTCHAR D
ENCODING 68
SWIDTH 704 0
DWIDTH 14 0
BBX 14 15 0 0
BITMAP
1AAA4000
3FFFF400
7FFFFD00
7FFFFF40
7F40BFC0
7F402FD0
7F400FD0
7F400FE0
7F400FD0
7F401FD0
7F407FC0
7FAAFF40
7FFFFE00
7FFFF800
2FFF9000
ENDCHAR
STARTCHAR E
ENCODING 69
SWIDTH 638 0
DWIDTH 13 0
BBX 13 15 0 0
BITMAP
1AAAA900
3FFFFF40
7FFFFF40
7FFFFE00
7F400000
7F400000
7FFFE000
7FFFF000
7FFFF000
7F955000
7F400000
7FAAA900
7FFFFF40
7FFFFF40
2FFFFE00
ENDCHAR
STARTCHAR F
ENCODING 70
SWIDTH 637 0
DWIDTH 13 0
BBX 13 15 0 0
BITMAP
1AAAA900
3FFFFF40
7FFFFF40
7FFFFE00
7F400000
7F400000
7FFFE000
7FFFF000
7FFFF000
7F955000
7F400000
7F400000
7F400000
7F400000
2E000000
ENDCHAR
STARTCHAR G
ENCODING 71
SWIDTH 714 0
DWIDTH 14 0
BBX 14 15 0 0
BITMAP
001BE400
01FFFF40
0BFFFFC0
1FFEBF80
3FD00600
7F800000
7F42BF80
7F03FFD0
7F42FFD0
7F800FD0
3FD00FD0
1FF96FD0
0BFFFFD0
02FFFF80
006FFD00
ENDCHAR
STARTCHAR H
ENCODING 72
SWIDTH 699 0
DWIDTH 14 0
BBX 14 15 0 0
BITMAP
1A000640
3F401FC0
7F401FD0
7F401FD0
7F401FD0
7F401FD0
7FEABFD0
7FFFFFD0
7FFFFFD0
7F401FD0
7F401FD0
7F401FD0
7F401FD0
7F401FD0
2E000F80
ENDCHAR
STARTCHAR I
ENCODING 73
SWIDTH 257 0
DWIDTH 5 0
BBX 5 15 0 0
BITMAP
1A00
3F40
7F40
7F40
7F40
7F40
7F40
7F40
7F40
7F40
7F40
7F40
7F40
7F40
2E00
ENDCHAR
STARTCHAR J
ENCODING 74
SWIDTH 549 0
DWIDTH 11 0
BBX 11 15 0 0
BITMAP
000190
0007F0
0007F4
0007F4
0007F4
0007F4
0007F4
0007F4
0007F4
0007F4
180BF0
7F6FF0
BFFFD0
3FFF80
0BFD00
ENDCHAR
STARTCHAR K
ENCODING 75
SWIDTH 639 0
DWIDTH 13 0
BBX 12 15 0 0
BITMAP
1A0028
3F40BF
7F42FF
7F4BFD
7F5FF4
7FBFD0
7FFF40
7FFD00
7FFF00
7FBFC0
7F6FF0
7F4BFC
7F43FE
7F40FF
2E007D
ENDCHAR
STARTCHAR L
ENCODING 76
SWIDTH 587 0
DWIDTH 12 0
BBX 12 15 0 0
BITMAP
1A0000
3F4000
7F4000
7F4000
7F4000
7F4000
7F4000
7F4000
7F4000
7F4000
7F4000
7F4000
7FFFF8
7FFFFD
2FFFFC
ENDCHAR
STARTCHAR M
ENCODING 77
SWIDTH 870 0
DWIDTH 17 0
BBX 17 15 0 0
BITMAP
1900001A00
3F80007F80
7FD000FF80
7FF402FF80
7FFC0BFF80
7FFE1FFF80
7FFFBFFF80
7F7FFF7F80
7F5FFE3F80
7F47F83F80
7F42F03F80
7F40003F80
7F40003F80
7F40003F80
2E00002F40
ENDCHAR
STARTCHAR N
ENCODING 78
SWIDTH 720 0
DWIDTH 14 0
BBX 14 15 0 0
BITMAP
19000680
3F800FE0
7FD00FE0
7FF00FE0
7FF80FE0
7FFE0FE0
7FFF4FE0
7F7FCFE0
7F5FEFE0
7F4BFFE0
7F42FFE0
7F40FFE0
7F407FE0
7F402FE0
2E000BD0
ENDCHAR
STARTCHAR O
ENCODING 79
SWIDTH 775 0
DWIDTH 16 0
BBX 15 16 0 -1
BITMAP
001AA400
01FFFE00
07FFFFC0
1FFEBFE0
2FE01FF4
3F8007F8
7F4002FC
7F0002FC
7F0002FC
7F4003F8
3FD00BF4
2FF96FF0
0BFFFFD0
02FFFF40
007FF900
00014000
ENDCHAR
STARTCHAR P
ENCODING 80
SWIDTH 632 0
DWIDTH 13 0
BBX 12 15 0 0
BITMAP
1AAA40
3FFFF4
7FFFFC
7FFFFE
7F40BF
7F407F
7F40BF
7FAAFE
7FFFFD
7FFFF4
7FFF90
7F4000
7F4000
7F4000
2E0000
ENDCHAR
STARTCHAR Q
ENCODING 81
SWIDTH 830 0
DWIDTH 17 0
BBX 16 16 0 -1
BITMAP
001AA400
01FFFE00
07FFFFC0
1FFEBFE0
2FE01FF4
3F8007F8
7F4002FC
7F0002FC
7F0002FC
7F4003F8
3FD00BF4
2FF96FF8
0BFFFFFF
02FFFFFF
007FF92E
00014000
ENDCHAR
STARTCHAR R
ENCODING 82
SWIDTH 631 0
DWIDTH 13 0
BBX 13 15 0 0
BITMAP
1AAA4000
3FFFF400
7FFFFC00
7FFFFE00
7F40BF00
7F407F00
7F40BF00
7FAAFF00
7FFFFD00
7FFFF800
7FFFFC00
7F41FE00
7F40FF00
7F407F40
2E003E00
ENDCHAR
STARTCHAR S
ENCODING 83
SWIDTH 583 0
DWIDTH 12 0
BBX 11 15 0 0
BITMAP
02BE40
0FFFE0
2FFFF4
3FDBE0
7F4040
3F9000
2FFE40
0FFFF4
01BFF8
0007FC
2D01FC
7F86FC
7FFFF8
1FFFF0
06FF80
ENDCHAR
STARTCHAR T
ENCODING 84
SWIDTH 731 0
DWIDTH 15 0
BBX 15 15 0 0
BITMAP
6AAAAAA0
BFFFFFF4
BFFFFFF4
156FD540
001FC000
001FC000
001FC000
001FC000
001FC000
001FC000
001FC000
001FC000
001FC000
001FC000
000F8000
ENDCHAR
STARTCHAR U
ENCODING 85
SWIDTH 726 0
DWIDTH 15 0
BBX 14 16 0 -1
BITMAP
1A000690
3F400BE0
7F400BE0
7F400BE0
7F400BE0
7F400BE0
7F400BE0
7F400BE0
7F400FE0
3F800FE0
2FC02FD0
1FF5BFC0
0BFFFF40
03FFFE00
00BFE400
00010000
ENDCHAR
STARTCHAR V
ENCODING 86
SWIDTH 783 0
DWIDTH 16 0
BBX 16 15 0 0
BITMAP
190000A4
BF0001FD
BF4002FD
3F8003F8
2FD00BF4
0FE00FE0
0BF02FD0
03F83F80
02FC7F40
00FEFE00
00BFFD00
003FF800
002FF400
000FE000
0007C000
ENDCHAR
STARTCHAR W
ENCODING 87
SWIDTH 999 0
DWIDTH 20 0
BBX 20 15 0 0
BITMAP
1900280064
BF00BE00FE
BF40FF01FD
7F81FF42FC
3FC2FF83F8
2FC3FFC7F4
0FD7FFDBF0
0BEBFFEFE0
07FFEBFFD0
03FFC7FFC0
02FF83FF80
01FF42FF40
00FF01FF00
00BE00FE00
007D007D00
ENDCHAR
STARTCHAR X
ENCODING 88
SWIDTH 741 0
DWIDTH 15 0
BBX 15 15 0 0
BITMAP
2D0001E0
BF4007F4
7FD01FF4
2FF07FE0
0BF9FF80
02FFFE00
00FFF800
007FF000
00BFF800
02FFFE00
0BFDFF40
2FF47FD0
7FD01FF4
BF400BF4
2E0002E0
ENDCHAR
STARTCHAR Y
ENCODING 89
SWIDTH 686 0
DWIDTH 14 0
BBX 14 15 0 0
BITMAP
19000A40
BF001FD0
7F803FD0
3FD0BF80
1FF1FF00
0BFAFD00
03FFF800
01FFF000
00BFD000
003F8000
003F8000
003F8000
003F8000
003F8000
002F4000
ENDCHAR
STARTCHAR Z
ENCODING 90
SWIDTH 643 0
DWIDTH 13 0
BBX 13 15 0 0
BITMAP
2AAAA900
7FFFFF00
7FFFFF00
2AABFD00
000BF800
001FF000
003FD000
00BF8000
01FE0000
07FD0000
0FF40000
2FF55500
7FFFFF40
7FFFFF40
2FFFFF00
ENDCHAR
STARTCHAR bracketleft
ENCODING 91
SWIDTH 348 0
DWIDTH 7 0
BBX 7 21 0 -5
BITMAP
1550
3FF8
7FF8
7F50
7F00
7F00
7F00
7F00
7F00
7F00
7F00
7F00
7F00
7F00
7F00
7F00
7F00
7F50
7FF8
3FF8
1A90
ENDCHAR
STARTCHAR backslash
ENCODING 92
SWIDTH 528 0
DWIDTH 11 0
BBX 11 17 0 -1
BITMAP
180000
BE0000
BF0000
3F8000
2FC000
0FE000
0BF000
03F800
02FC00
01FD00
00BF00
007F40
002FC0
001FD0
000BF0
0007F4
0002E0
ENDCHAR
STARTCHAR bracketright
ENCODING 93
SWIDTH 348 0
DWIDTH 7 0
BBX 6 21 0 -5
BITMAP
1550
BFF0
BFF0
17F0
03F0
03F0
03F0
03F0
03F0
03F0
03F0
03F0
03F0
03F0
03F0
03F0
03F0
17F0
BFF0
BFF0
1A90
ENDCHAR
STARTCHAR asciicircum
ENCODING 94
SWIDTH 526 0
DWIDTH 11 0
BBX 9 6 1 5
BITMAP
029000
0BF400
2FFD00
BFBF40
FD2F80
B40B00
ENDCHAR
STARTCHAR underscore
ENCODING 95
SWIDTH 826 0
DWIDTH 17 0
BBX 17 4 0 -5
BITMAP
1555555400
BFFFFFFF00
BFFFFFFF40
6AAAAAA900
ENDCHAR
STARTCHAR grave
ENCODING 96
SWIDTH 482 0
DWIDTH 10 0
BBX 6 5 2 11
BITMAP
1000
BE40
FFE0
6FE0
0180
ENDCHAR
STARTCHAR a
ENCODING 97
SWIDTH 596 0
DWIDTH 12 0
BBX 11 11 0 0
BITMAP
005464
07FEFC
1FFFFC
3FFFFC
7F87FC
7F02FC
7F42FC
7FEBFC
2FFFFC
0BFFFC
02F9B8
ENDCHAR
STARTCHAR b
ENCODING 98
SWIDTH 592 0
DWIDTH 12 0
BBX 12 16 0 0
BITMAP
150000
3F4000
7F4000
7F4000
7F4000
7F5500
7FFFD0
7FFFF4
7FFFF8
7FC2FD
7F41FD
7F81FD
7FEBFC
7FFFF8
7FFFE0
2E6E40
ENDCHAR
STARTCHAR c
ENCODING 99
SWIDTH 517 0
DWIDTH 10 0
BBX 10 11 0 0
BITMAP
006900
07FFD0
1FFFE0
3FFFD0
7F8280
7F0000
7F4000
7FEBC0
2FFFE0
0BFFE0
01FF40
ENDCHAR
STARTCHAR d
ENCODING 100
SWIDTH 598 0
DWIDTH 12 0
BBX 11 16 0 0
BITMAP
000054
0001FC
0001FC
0001FC
0001FC
0055FC
07FFFC
1FFFFC
3FFFFC
7F83FC
7F01FC
7F42FC
3FEBFC
2FFFFC
0BFFFC
01B9F8
ENDCHAR
STARTCHAR e
ENCODING 101
SWIDTH 573 0
DWIDTH 11 0
BBX 11 12 0 -1
BITMAP
00AA40
0BFFE0
1FFFF4
3FE7F8
7F42FC
7FFFF8
7FFFE4
7F8050
2FFBF0
1FFFF4
02FFE0
001500
ENDCHAR
STARTCHAR f
ENCODING 102
SWIDTH 450 0
DWIDTH 9 0
BBX 9 16 0 0
BITMAP
001500
01FF00
07FF00
0BFE00
0FE000
1FE500
BFFF80
BFFF80
7FFF40
0FE000
0FE000
0FE000
0FE000
0FE000
0FE000
0BD000
ENDCHAR
STARTCHAR g
ENCODING 103
SWIDTH 585 0
DWIDTH 12 0
BBX 11 16 0 -5
BITMAP
005464
07FEFC
1FFFFC
3FFFFC
7F43FC
7F02FC
7F43FC
3FEFFC
2FFFFC
0BFFFC
01A6FC
0503F8
1FEFF4
2FFFE0
0BFF80
006500
ENDCHAR
STARTCHAR h
ENCODING 104
SWIDTH 605 0
DWIDTH 12 0
BBX 12 16 0 0
BITMAP
150000
3F4000
7F4000
7F4000
7F4000
7F5500
7FBFD0
7FFFF4
7FFFFC
7F82FC
7F41FD
7F41FD
7F41FD
7F41FD
7F41FD
2E00B8
ENDCHAR
STARTCHAR i
ENCODING 105
SWIDTH 255 0
DWIDTH 5 0
BBX 5 16 0 0
BITMAP
1500
3F40
7F40
2F00
0000
1500
3F40
7F40
7F40
7F40
7F40
7F40
7F40
7F40
7F40
2E00
ENDCHAR
STARTCHAR j
ENCODING 106
SWIDTH 252 0
DWIDTH 5 0
BBX 8 21 -3 -5
BITMAP
0054
00FC
01FD
00B8
0000
0064
00FD
01FD
01FD
01FD
01FD
01FD
01FD
01FD
01FD
01FD
02FC
7FF8
BFF4
BFD0
1500
ENDCHAR
STARTCHAR k
ENCODING 107
SWIDTH 536 0
DWIDTH 11 0
BBX 11 16 0 0
BITMAP
150000
3F4000
7F4000
7F4000
7F4000
7F4000
7F4780
7F6FE0
7FBFD0
7FFF40
7FFD00
7FFE00
7FFFD0
7F6FF4
7F4BF4
2E02E0
ENDCHAR
STARTCHAR l
ENCODING 108
SWIDTH 327 0
DWIDTH 7 0
BBX 7 16 0 0
BITMAP
1500
3F40
7F40
7F40
7F40
7F40
7F40
7F40
7F40
7F40
7F40
7F40
7F90
3FF0
2FF4
1BF0
ENDCHAR
STARTCHAR m
ENCODING 109
SWIDTH 851 0
DWIDTH 17 0
BBX 17 11 0 0
BITMAP
1919019000
3FBFDBFC00
7FFFFFFE00
7FFFFFFF00
7F8BF8BF00
7F47F47F40
7F47F47F40
7F47F47F40
7F47F47F40
7F47F47F40
2E02E02E00
ENDCHAR
STARTCHAR n
ENCODING 110
SWIDTH 606 0
DWIDTH 12 0
BBX 12 11 0 0
BITMAP
191900
3FBFD0
7FFFF4
7FFFFC
7F82FD
7F41FD
7F41FD
7F41FD
7F41FD
7F41FD
2E00B8
ENDCHAR
STARTCHAR o
ENCODING 111
SWIDTH 600 0
DWIDTH 12 0
BBX 12 11 0 0
BITMAP
00AA40
07FFD0
1FFFF4
3FFFFC
7F41FD
7F00FD
7F41FD
7FD7FD
2FFFF8
0BFFF0
02FF80
ENDCHAR
STARTCHAR p
ENCODING 112
SWIDTH 582 0
DWIDTH 12 0
BBX 11 16 0 -5
BITMAP
191500
3FBFD0
7FFFF0
7FFFF8
7F82FC
7F41FC
7F82FC
7FEBF8
7FFFF4
7FFFD0
7F6A00
7F4000
7F4000
7F4000
3F0000
190000
ENDCHAR
STARTCHAR q
ENCODING 113
SWIDTH 582 0
DWIDTH 12 0
BBX 11 16 0 -5
BITMAP
005460
07FEF8
1FFFFC
3FFFFC
7F47FC
7F02FC
7F43FC
3FEFFC
2FFFFC
0BFFFC
01A6FC
0002FC
0002FC
0002FC
0002F8
000064
ENDCHAR
STARTCHAR r
ENCODING 114
SWIDTH 457 0
DWIDTH 9 0
BBX 9 11 0 0
BITMAP
191A00
3FBF80
7FFF80
7FFF40
7F8000
7F4000
7F4000
7F4000
7F4000
7F4000
2E0000
ENDCHAR
STARTCHAR s
ENCODING 115
SWIDTH 489 0
DWIDTH 10 0
BBX 10 12 0 -1
BITMAP
06A900
1FFF80
3FFF80
3F4600
3FE900
2FFF40
0BFFC0
146FD0
7FAFD0
7FFF80
1BFE00
004000
ENDCHAR
STARTCHAR t
ENCODING 116
SWIDTH 449 0
DWIDTH 9 0
BBX 9 14 0 0
BITMAP
0BD000
0FE000
0FE000
1FE500
BFFF80
BFFF80
7FFF40
0FE000
0FE000
0FE000
0BF400
0BFF00
07FF00
01BE00
ENDCHAR
STARTCHAR u
ENCODING 117
SWIDTH 606 0
DWIDTH 12 0
BBX 12 11 0 0
BITMAP
190064
3F40FD
7F41FD
7F41FD
7F41FD
7F41FD
3F81FD
3FEBFD
2FFFFD
0BFFFD
01B8B8
ENDCHAR
STARTCHAR v
ENCODING 118
SWIDTH 638 0
DWIDTH 13 0
BBX 13 11 0 0
BITMAP
19001900
7F003F40
BF40BF40
3FC0FE00
1FD2FD00
0FF7F800
07FFF000
02FFE000
01FFC000
00BF4000
002E0000
ENDCHAR
STARTCHAR w
ENCODING 119
SWIDTH 793 0
DWIDTH 16 0
BBX 16 11 0 0
BITMAP
19014064
BE0BE0FD
BF0FF1FD
3F9FF6FC
2FEFFBF8
1FFFFFF4
0FFFFFE0
0BFEBFD0
03FD7FC0
02F83F80
01F41F00
ENDCHAR
STARTCHAR x
ENCODING 120
SWIDTH 567 0
DWIDTH 11 0
BBX 11 11 0 0
BITMAP
180060
7F02F8
BFCBFC
3FFFF4
0FFFD0
03FF40
0BFF80
2FFFE0
7FDFF8
BF43FC
2D00F4
ENDCHAR
STARTCHAR y
ENCODING 121
SWIDTH 604 0
DWIDTH 12 0
BBX 12 16 0 -5
BITMAP
190024
BF00BE
7F41FE
3FC2FD
1FE3F8
0BFBF4
07FFE0
02FFD0
00FFC0
007F40
00BF00
01FE00
02FC00
03F800
03F400
01A000
ENDCHAR
STARTCHAR z
ENCODING 122
SWIDTH 586 0
DWIDTH 12 0
BBX 12 11 0 0
BITMAP
1AAA90
3FFFF8
3FFFFC
2FFFF4
007FD0
01FF40
07FD00
1FFAA4
7FFFFC
7FFFFD
2FFFF8
ENDCHAR
STARTCHAR braceleft
ENCODING 123
SWIDTH 381 0
DWIDTH 8 0
BBX 8 21 0 -5
BITMAP
0014
01FD
03FD
07E4
07D0
07D0
07D0
07D0
0BD0
7FC0
BF80
7FC0
0BD0
07D0
07D0
07D0
07D0
07E4
03FD
01FD
0054
ENDCHAR
STARTCHAR bar
ENCODING 124
SWIDTH 217 0
DWIDTH 4 0
BBX 4 21 0 -5
BITMAP
14
3D
7E
7E
7E
7E
7E
7E
7E
7E
7E
7E
7E
7E
7E
7E
7E
7E
7E
3D
18
ENDCHAR
STARTCHAR braceright
ENCODING 125
SWIDTH 381 0
DWIDTH 8 0
BBX 8 21 0 -5
BITMAP
1400
BE00
BF80
1FC0
0FC0
0FC0
0FC0
0FC0
0BC0
07FC
03FD
07FC
0BD0
0FC0
0FC0
0FC0
0FC0
1FC0
BF80
BF00
1400
ENDCHAR
STARTCHAR asciitilde
ENCODING 126
SWIDTH 651 0
DWIDTH 13 0
BBX 11 5 1 3
BITMAP
064050
2FF6F4
BFFFF4
FEFFE0
242A40
ENDCHAR
STARTCHAR exclamdown
ENCODING 161
SWIDTH 268 0
DWIDTH 5 0
BBX 5 16 0 -5
BITMAP
0400
3F40
7F80
3F40
1900
0000
2E00
3F40
3F40
3F40
3F40
3F40
3F40
3F40
3F40
1900
ENDCHAR
STARTCHAR cent
ENCODING 162
SWIDTH 434 0
DWIDTH 9 0
BBX 8 16 0 -2
BITMAP
0050
01F0
01F0
01F0
07F9
1FFF
3FFE
7E04
7E00
7F59
3FFF
0FFE
02F4
01F0
01F0
0090
ENDCHAR
STARTCHAR sterling
ENCODING 163
SWIDTH 675 0
DWIDTH 14 0
BBX 13 15 0 0
BITMAP
001AA400
00BFFE00
02FFFF80
07FEBF80
0BE00A00
0FD00000
1FE90000
BFFF8000
BFFF8000
07F50000
03F00000
07F55500
0FFFFFC0
1FFFFFC0
0BFFFF80
ENDCHAR
STARTCHAR currency
ENCODING 164
SWIDTH 677 0
DWIDTH 14 0
BBX 13 16 0 0
BITMAP
14000100
7D000B80
7FA5AFC0
2FFFFF40
0FFFFE00
2FE6BF00
3F402F40
3F001F80
3F001F80
3F002F80
2F807F40
1FFFFF00
1FFFFE00
3FFFFF80
7E001FC0
28000640
ENDCHAR
STARTCHAR yen
ENCODING 165
SWIDTH 677 0
DWIDTH 14 0
BBX 13 15 0 0
BITMAP
19000600
7F001FC0
BF803FC0
3FC0BF80
1FE1FE00
0BF6FD00
03FFF800
01FFF400
0BFFFD00
0BFFFD00
003F8000
06BFE800
0BFFFD00
017F9400
002F4000
ENDCHAR
STARTCHAR brokenbar
ENCODING 166
SWIDTH 215 0
DWIDTH 4 0
BBX 4 21 0 -5
BITMAP
14
3D
7D
7E
7E
7E
7E
7E
3D
18
00
18
3D
7E
7E
7E
7E
7E
7D
3D
14
ENDCHAR
STARTCHAR section
ENCODING 167
SWIDTH 560 0
DWIDTH 11 0
BBX 11 21 0 -5
BITMAP
005400
07FF80
1FFFE0
3FEFE0
7F4280
3F4000
3FF900
1FFFD0
2FFFF4
3F9BF8
7F42F8
3FD7F8
2FFFF4
0BFFF0
006FF4
1403F8
3E03F8
7FEBF4
2FFFF0
0BFF80
005400
ENDCHAR
STARTCHAR dieresis
ENCODING 168
SWIDTH 489 0
DWIDTH 10 0
BBX 10 4 0 12
BITMAP
150140
3F4BE0
7F4BE0
3F0BD0
ENDCHAR
STARTCHAR copyright
ENCODING 169
SWIDTH 711 0
DWIDTH 14 0
BBX 14 13 0 2
BITMAP
01AFE400
0BFAFE00
2E450B80
3C7FD2D0
78FFE1D0
76E040E0
76D000E0
76E000E0
75FAE1E0
387FE2D0
2E054780
0BEABF00
01BFE400
ENDCHAR
STARTCHAR ordfeminine
ENCODING 170
SWIDTH 445 0
DWIDTH 9 0
BBX 8 9 0 6
BITMAP
0104
0FEF
3FFF
7E7F
7C2F
7E7F
3FFF
0FEF
0104
ENDCHAR
STARTCHAR guillemotleft
ENCODING 171
SWIDTH 668 0
DWIDTH 13 0
BBX 13 11 0 0
BITMAP
00100100
00F80F80
03FC3FC0
0FF4FF40
3FD3FD00
BF4BF400
7F87F800
2FE2FE00
0BF8BF80
02FC2FC0
00740740
ENDCHAR
STARTCHAR logicalnot
ENCODING 172
SWIDTH 526 0
DWIDTH 11 0
BBX 11 7 0 2
BITMAP
6AAAA0
BFFFF4
BFFFF4
2AAAF4
0001F4
0001F0
000050
ENDCHAR
STARTCHAR registered
ENCODING 174
SWIDTH 711 0
DWIDTH 14 0
BBX 14 13 0 2
BITMAP
01AFE400
0BFAFE00
2E550B80
3C7FD2D0
78BEF1D0
74B8F4E0
74BFF0E0
74BFE0E0
74B9F1E0
3874B6D0
2E101B80
0BEABF00
01BFE400
ENDCHAR
STARTCHAR degree
ENCODING 176
SWIDTH 407 0
DWIDTH 8 0
BBX 8 8 0 8
BITMAP
0140
1FF4
3FFD
7C3E
7C2E
7EBD
2FF8
0690
ENDCHAR
STARTCHAR plusminus
ENCODING 177
SWIDTH 505 0
DWIDTH 10 0
BBX 10 11 0 0
BITMAP
00A400
01F800
2AFE80
7FFFE0
7FFFE0
16F940
01F400
005000
2AAA80
7FFFD0
3FFFC0
ENDCHAR
STARTCHAR twosuperior
ENCODING 178
SWIDTH 455 0
DWIDTH 9 0
BBX 9 11 0 4
BITMAP
07F400
2FFE00
7FFF00
7E2F40
7D2F40
14BF00
07FD00
2FF900
7FFF80
7FFF80
2AAA40
ENDCHAR
STARTCHAR threesuperior
ENCODING 179
SWIDTH 457 0
DWIDTH 9 0
BBX 9 11 0 4
BITMAP
06F800
1FFE00
3FBF40
2D2F40
01BF00
02FF00
296F40
7E1F80
7FFF40
2FFE00
06A400
ENDCHAR
STARTCHAR acute
ENCODING 180
SWIDTH 605 0
DWIDTH 12 0
BBX 6 5 3 11
BITMAP
0040
2BE0
FFF0
BF90
6400
ENDCHAR
STARTCHAR mu
ENCODING 181
SWIDTH 601 0
DWIDTH 12 0
BBX 12 16 0 -5
BITMAP
190064
3F41FC
7F41FD
7F41FD
7F41FD
7F41FD
7F42FD
7FEBFD
7FFFFD
7FFFFD
7FA8B8
7F4000
7F4000
7F4000
3F4000
150000
ENDCHAR
STARTCHAR paragraph
ENCODING 182
SWIDTH 614 0
DWIDTH 12 0
BBX 11 18 0 -5
BITMAP
015550
2FFFFC
7FFEFC
7FFCBC
7FFCBC
7FFCBC
3FFCBC
0AFCBC
00FCBC
00FCBC
00FCBC
00FCBC
00FCBC
00FCBC
00FCBC
00FCBC
00BCBC
006424
ENDCHAR
STARTCHAR periodcentered
ENCODING 183
SWIDTH 237 0
DWIDTH 5 0
BBX 5 4 0 4
BITMAP
7E00
7F40
7F40
2900
ENDCHAR
STARTCHAR cedilla
ENCODING 184
SWIDTH 559 0
DWIDTH 11 0
BBX 5 5 3 -4
BITMAP
1800
7F00
1B40
7F40
2900
ENDCHAR
STARTCHAR onesuperior
ENCODING 185
SWIDTH 321 0
DWIDTH 6 0
BBX 6 11 0 4
BITMAP
02D0
0BE0
3FE0
BFE0
7FE0
07E0
07E0
07E0
07E0
07E0
0290
ENDCHAR
STARTCHAR ordmasculine
ENCODING 186
SWIDTH 439 0
DWIDTH 9 0
BBX 9 8 0 6
BITMAP
0BF800
2FFE00
7E6F00
7C1F40
7D2F40
3FFF00
1FFC00
019000
ENDCHAR
STARTCHAR guillemotright
ENCODING 187
SWIDTH 669 0
DWIDTH 13 0
BBX 13 11 0 0
BITMAP
14014000
7D07D000
BF4BF400
2FD2FD00
0BF4BF40
02FC2FC0
07F87F80
1FE1FE00
7F87F800
BE0BE000
28028000
ENDCHAR
STARTCHAR onequarter
ENCODING 188
SWIDTH 786 0
DWIDTH 16 0
BBX 14 17 1 -1
BITMAP
05001400
1F007800
7F40B400
FF41E000
6F42D000
0F478000
0F4B4000
0F5E1140
0F3CBAD0
0078F6E0
00F1F2E0
01E1FBE0
03C2FFE0
0B41ABE0
0F0002E0
2D0002D0
04000000
ENDCHAR
STARTCHAR onehalf
ENCODING 189
SWIDTH 804 0
DWIDTH 16 0
BBX 14 17 1 -1
BITMAP
05001400
1F007800
7F40B400
FF41E000
6F42D000
0F478000
0F4B4000
0F5E1500
0F3CBF80
0079FFD0
00F2E3E0
01E197D0
03C02F80
0B41FF40
0F02FFE0
2D01FFE0
04000000
ENDCHAR
STARTCHAR threequarters
ENCODING 190
SWIDTH 842 0
DWIDTH 17 0
BBX 15 17 1 -1
BITMAP
05000500
2FD00F00
BFF02D00
74F43C00
0BE0B400
16F4E000
F4F6D000
BFF78410
2FDB6EB8
001E3DB8
002D3DB8
00787EF8
00F0BFF8
01E06AF8
03C000B8
07800074
01000000
ENDCHAR
STARTCHAR questiondown
ENCODING 191
SWIDTH 511 0
DWIDTH 10 0
BBX 10 16 0 -5
BITMAP
00A400
02FC00
02FC00
01F800
000000
005000
01F800
0BF800
2FF400
7F9000
7E0280
7E07F0
7FEFE0
2FFFC0
0BFF40
005400
ENDCHAR
STARTCHAR Agrave
ENCODING 192
SWIDTH 765 0
DWIDTH 15 0
BBX 15 19 0 0
BITMAP
007E4000
00BFF000
007FF000
00059000
00064000
000FD000
002FE000
003FF400
007FF800
00FFFD00
01FEFE00
03FCBF40
07F87F80
0FFFFFD0
1FFFFFE0
3FFFFFF0
7F8007F8
BF0002FC
7E0001F4
ENDCHAR
STARTCHAR Aacute
ENCODING 193
SWIDTH 765 0
DWIDTH 15 0
BBX 15 20 0 0
BITMAP
00001400
0006FC00
002FFC00
001FE400
00090000
00064000
000FD000
002FE000
003FF400
007FF800
00FFFD00
01FEFE00
03FCBF40
07F87F80
0FFFFFD0
1FFFFFE0
3FFFFFF0
7F8007F8
BF0002FC
7E0001F4
ENDCHAR
STARTCHAR Acircumflex
ENCODING 194
SWIDTH 765 0
DWIDTH 15 0
BBX 15 20 0 0
BITMAP
00014000
006FF800
01FFFE00
00FDBD00
00100400
00064000
000FD000
002FE000
003FF400
007FF800
00FFFD00
01FEFE00
03FCBF40
07F87F80
0FFFFFD0
1FFFFFE0
3FFFFFF0
7F8007F8
BF0002FC
7E0001F4
ENDCHAR
STARTCHAR Atilde
ENCODING 195
SWIDTH 765 0
DWIDTH 15 0
BBX 15 20 0 0
BITMAP
00150400
00BFBD00
01FFFD00
00F6F800
00000000
00064000
000FD000
002FE000
003FF400
007FF800
00FFFD00
01FEFE00
03FCBF40
07F87F80
0FFFFFD0
1FFFFFE0
3FFFFFF0
7F8007F8
BF0002FC
7E0001F4
ENDCHAR
STARTCHAR Adieresis
ENCODING 196
SWIDTH 765 0
DWIDTH 15 0
BBX 15 20 0 0
BITMAP
00501500
02F87F00
02F87F40
01F83F00
00000000
00064000
000FD000
002FE000
003FF400
007FF800
00FFFD00
01FEFE00
03FCBF40
07F87F80
0FFFFFD0
1FFFFFE0
3FFFFFF0
7F8007F8
BF0002FC
7E0001F4
ENDCHAR
STARTCHAR Aring
ENCODING 197
SWIDTH 765 0
DWIDTH 15 0
BBX 15 19 0 0
BITMAP
00014000
001FD000
00287000
00387400
002EF000
000FD000
002FE000
003FF400
007FF800
00FFFD00
01FEFE00
03FCBF40
07F87F80
0FFFFFD0
1FFFFFE0
3FFFFFF0
7F8007F8
BF0002FC
7E0001F4
ENDCHAR
STARTCHAR AE
ENCODING 198
SWIDTH 1148 0
DWIDTH 23 0
BBX 23 15 0 0
BITMAP
000002AAAAA0
00000BFFFFF4
00002FFFFFF4
0000BFFFFFE0
0002FFF80000
0007FFF80000
001FF7FFFF00
007FD3FFFF40
01FF83FFFF00
07FFFFF95500
0FFFFFF80000
3FFFFFFAAA90
BFC003FFFFF4
FF0003FFFFF4
7D0001FFFFF0
ENDCHAR
STARTCHAR Ccedilla
ENCODING 199
SWIDTH 679 0
DWIDTH 14 0
BBX 13 19 0 -4
BITMAP
001AA400
01FFFF40
07FFFFC0
1FFEBF80
3FE00A00
7F800000
7F400000
7F000000
7F000000
7F400000
3FD00500
1FF96F80
0BFFFFC0
02FFFF80
006FF900
000BE000
0005F000
000BE000
00068000
ENDCHAR
STARTCHAR Egrave
ENCODING 200
SWIDTH 638 0
DWIDTH 13 0
BBX 13 19 0 0
BITMAP
00F90000
01FFD000
00BFE000
00068000
1AAAA900
3FFFFF40
7FFFFF40
7FFFFE00
7F400000
7F400000
7FFFE000
7FFFF000
7FFFF000
7F955000
7F400000
7FAAA900
7FFFFF40
7FFFFF40
2FFFFE00
ENDCHAR
STARTCHAR Eacute
ENCODING 201
SWIDTH 638 0
DWIDTH 13 0
BBX 13 20 0 0
BITMAP
00004000
002BE000
00FFF000
00BF9000
00640000
1AAAA900
3FFFFF40
7FFFFF40
7FFFFE00
7F400000
7F400000
7FFFE000
7FFFF000
7FFFF000
7F955000
7F400000
7FAAA900
7FFFFF40
7FFFFF40
2FFFFE00
ENDCHAR
STARTCHAR Ecircumflex
ENCODING 202
SWIDTH 638 0
DWIDTH 13 0
BBX 13 20 0 0
BITMAP
00150000
02FFE000
07FFF400
07E6F000
00005000
1AAAA900
3FFFFF40
7FFFFF40
7FFFFE00
7F400000
7F400000
7FFFE000
7FFFF000
7FFFF000
7F955000
7F400000
7FAAA900
7FFFFF40
7FFFFF40
2FFFFE00
ENDCHAR
STARTCHAR Edieresis
ENCODING 203
SWIDTH 638 0
DWIDTH 13 0
BBX 13 20 0 0
BITMAP
01405400
0BE1FC00
0FE1FC00
0BD1F800
00000000
1AAAA900
3FFFFF40
7FFFFF40
7FFFFE00
7F400000
7F400000
7FFFE000
7FFFF000
7FFFF000
7F955000
7F400000
7FAAA900
7FFFFF40
7FFFFF40
2FFFFE00
ENDCHAR
STARTCHAR Igrave
ENCODING 204
SWIDTH 267 0
DWIDTH 5 0
BBX 6 19 -1 0
BITMAP
BE40
FFE0
7FE0
0690
0680
0FD0
0FD0
0FD0
0FD0
0FD0
0FD0
0FD0
0FD0
0FD0
0FD0
0FD0
0FD0
0FD0
0BC0
ENDCHAR
STARTCHAR Iacute
ENCODING 205
SWIDTH 269 0
DWIDTH 5 0
BBX 7 20 0 0
BITMAP
0050
1BF0
7FF4
7F90
2400
1A00
3F40
3F40
3F40
3F40
3F40
3F40
3F40
3F40
3F40
3F40
3F40
3F40
3F40
2F00
ENDCHAR
STARTCHAR Icircumflex
ENCODING 206
SWIDTH 270 0
DWIDTH 5 0
BBX 9 20 -2 0
BITMAP
005000
1BFE00
7FFF80
3F6F40
040100
01A000
03F400
03F400
03F400
03F400
03F400
03F400
03F400
03F400
03F400
03F400
03F400
03F400
03F400
02F000
ENDCHAR
STARTCHAR Idieresis
ENCODING 207
SWIDTH 268 0
DWIDTH 5 0
BBX 10 20 -2 0
BITMAP
140540
BE1FC0
BE1FD0
7E0FC0
000000
01A000
03F400
03F400
03F800
03F800
03F800
03F800
03F800
03F800
03F800
03F800
03F800
03F800
03F400
02F400
ENDCHAR
STARTCHAR Eth
ENCODING 208
SWIDTH 775 0
DWIDTH 16 0
BBX 15 15 0 0
BITMAP
06AA9000
0BFFFE00
0BFFFF80
0BFFFFE0
0BE01FF4
0BE007F8
2FF802FC
7FFD02FC
7FFD02FC
0BE003F8
0BE00BF4
0BFABFF0
0BFFFFC0
0BFFFF00
07FFE400
ENDCHAR
STARTCHAR Ntilde
ENCODING 209
SWIDTH 720 0
DWIDTH 14 0
BBX 14 20 0 0
BITMAP
00141000
00FFBC00
02FFFC00
01E7F400
00000000
19000680
3F800FE0
7FD00FE0
7FF00FE0
7FF80FE0
7FFE0FE0
7FFF4FE0
7F7FCFE0
7F5FEFE0
7F4BFFE0
7F42FFE0
7F40FFE0
7F407FE0
7F402FE0
2E000BD0
ENDCHAR
STARTCHAR Ograve
ENCODING 210
SWIDTH 775 0
DWIDTH 16 0
BBX 15 20 0 -1
BITMAP
007E4000
00BFF000
006FF000
0001A000
001AA400
01FFFE00
07FFFFC0
1FFEBFE0
2FE01FF4
3F8007F8
7F4002FC
7F0002FC
7F0002FC
7F4003F8
3FD00BF4
2FF96FF0
0BFFFFD0
02FFFF40
007FF900
00014000
ENDCHAR
STARTCHAR Oacute
ENCODING 211
SWIDTH 775 0
DWIDTH 16 0
BBX 15 21 0 -1
BITMAP
00001400
0006FC00
002FFC00
002FE400
00090000
001AA400
01FFFE00
07FFFFC0
1FFEBFE0
2FE01FF4
3F8007F8
7F4002FC
7F0002FC
7F0002FC
7F4003F8
3FD00BF4
2FF96FF0
0BFFFFD0
02FFFF40
007FF900
00014000
ENDCHAR
STARTCHAR Ocircumflex
ENCODING 212
SWIDTH 775 0
DWIDTH 16 0
BBX 15 21 0 -1
BITMAP
00014000
006FF900
00FFFE00
00BEBD00
00100400
001AA400
01FFFE00
07FFFFC0
1FFEBFE0
2FE01FF4
3F8007F8
7F4002FC
7F0002FC
7F0002FC
7F4003F8
3FD00BF4
2FF96FF0
0BFFFFD0
02FFFF40
007FF900
00014000
ENDCHAR
STARTCHAR Otilde
ENCODING 213
SWIDTH 775 0
DWIDTH 16 0
BBX 15 21 0 -1
BITMAP
00050400
003FEF00
00BFFF00
0075FD00
00000000
001AA400
01FFFE00
07FFFFC0
1FFEBFE0
2FE01FF4
3F8007F8
7F4002FC
7F0002FC
7F0002FC
7F4003F8
3FD00BF4
2FF96FF0
0BFFFFD0
02FFFF40
007FF900
00014000
ENDCHAR
STARTCHAR Odieresis
ENCODING 214
SWIDTH 775 0
DWIDTH 16 0
BBX 15 21 0 -1
BITMAP
00501500
02F87F00
02F87F00
02F47F00
00000000
001AA400
01FFFE00
07FFFFC0
1FFEBFE0
2FE01FF4
3F8007F8
7F4002FC
7F0002FC
7F0002FC
7F4003F8
3FD00BF4
2FF96FF0
0BFFFFD0
02FFFF40
007FF900
00014000
ENDCHAR
STARTCHAR multiply
ENCODING 215
SWIDTH 521 0
DWIDTH 10 0
BBX 10 10 0 0
BITMAP
2D02C0
7F4BE0
7FEFE0
1FFF80
07FE00
0BFF40
2FFFD0
7F9FE0
3E07D0
040040
ENDCHAR
STARTCHAR Oslash
ENCODING 216
SWIDTH 775 0
DWIDTH 16 0
BBX 15 17 0 -1
BITMAP
00000900
001AAF80
01FFFF80
07FFFFC0
1FFEFFE0
2FE1FFF4
3F83FFF8
7F47F6FC
7F0BE2FC
7F5FD2FC
7F6FC3F8
3FFF4BF4
1FFF6FF0
0BFFFFD0
03FFFF40
03FFF900
01F14000
ENDCHAR
STARTCHAR Ugrave
ENCODING 217
SWIDTH 726 0
DWIDTH 15 0
BBX 14 20 0 -1
BITMAP
01F90000
02FFC000
01FFC000
00064000
1A000690
3F400BE0
7F400BE0
7F400BE0
7F400BE0
7F400BE0
7F400BE0
7F400BE0
7F400FE0
3F800FE0
2FC02FD0
1FF5BFC0
0BFFFF40
03FFFE00
00BFE400
00010000
ENDCHAR
STARTCHAR Uacute
ENCODING 218
SWIDTH 726 0
DWIDTH 15 0
BBX 14 21 0 -1
BITMAP
00001400
0006FC00
002FFC00
002FE400
00090000
1A000690
3F400BE0
7F400BE0
7F400BE0
7F400BE0
7F400BE0
7F400BE0
7F400BE0
7F400FE0
3F800FE0
2FC02FD0
1FF5BFC0
0BFFFF40
03FFFE00
00BFE400
00010000
ENDCHAR
STARTCHAR Ucircumflex
ENCODING 219
SWIDTH 726 0
DWIDTH 15 0
BBX 14 21 0 -1
BITMAP
00054000
00BFF800
01FFFD00
00F9BC00
00101400
1A000690
3F400BE0
7F400BE0
7F400BE0
7F400BE0
7F400BE0
7F400BE0
7F400BE0
7F400FE0
3F800FE0
2FC02FD0
1FF5BFC0
0BFFFF40
03FFFE00
00BFE400
00010000
ENDCHAR
STARTCHAR Udieresis
ENCODING 220
SWIDTH 726 0
DWIDTH 15 0
BBX 14 21 0 -1
BITMAP
01501400
03F4BE00
07F4BE00
03F0BD00
00000000
1A000690
3F400BE0
7F400BE0
7F400BE0
7F400BE0
7F400BE0
7F400BE0
7F400BE0
7F400FE0
3F800FE0
2FC02FD0
1FF5BFC0
0BFFFF40
03FFFE00
00BFE400
00010000
ENDCHAR
STARTCHAR Yacute
ENCODING 221
SWIDTH 686 0
DWIDTH 14 0
BBX 14 20 0 0
BITMAP
00005000
001BF000
00BFF000
00BF9000
00240000
19000A40
BF001FD0
7F803FD0
3FD0BF80
1FF1FF00
0BFAFD00
03FFF800
01FFF000
00BFD000
003F8000
003F8000
003F8000
003F8000
003F8000
002F4000
ENDCHAR
STARTCHAR Thorn
ENCODING 222
SWIDTH 634 0
DWIDTH 13 0
BBX 12 15 0 0
BITMAP
1A0000
3F4000
7FAA40
7FFFF4
7FFFFC
7FFFFE
7F40BF
7F407F
7F40BF
7FAAFE
7FFFFD
7FFFF4
7FFF90
7F4000
2E0000
ENDCHAR
STARTCHAR germandbls
ENCODING 223
SWIDTH 633 0
DWIDTH 13 0
BBX 12 16 0 -1
BITMAP
06FF90
1FFFF0
3FFFF4
3F83F4
7F4BF0
7F4FD0
7F5F80
7F5FD0
7F4BF8
7F42FE
7F407F
7F447F
7F6FFF
7F6FFE
3F5FF8
190000
ENDCHAR
STARTCHAR agrave
ENCODING 224
SWIDTH 596 0
DWIDTH 12 0
BBX 11 16 0 0
BITMAP
005000
01FE40
02FFC0
00BFC0
000540
005464
07FEFC
1FFFFC
3FFFFC
7F87FC
7F02FC
7F42FC
7FEBFC
2FFFFC
0BFFFC
02F9B8
ENDCHAR
STARTCHAR aacute
ENCODING 225
SWIDTH 596 0
DWIDTH 12 0
BBX 11 16 0 0
BITMAP
000140
006FD0
01FFD0
01FE40
005000
005464
07FEFC
1FFFFC
3FFFFC
7F87FC
7F02FC
7F42FC
7FEBFC
2FFFFC
0BFFFC
02F9B8
ENDCHAR
STARTCHAR acircumflex
ENCODING 226
SWIDTH 596 0
DWIDTH 12 0
BBX 11 16 0 0
BITMAP
001500
02FFE0
07FFF4
03E6F0
004050
005464
07FEFC
1FFFFC
3FFFFC
7F87FC
7F02FC
7F42FC
7FEBFC
2FFFFC
0BFFFC
02F9B8
ENDCHAR
STARTCHAR atilde
ENCODING 227
SWIDTH 596 0
DWIDTH 12 0
BBX 11 16 0 0
BITMAP
005010
02FEF4
07FFF4
079BD0
000000
005464
07FEFC
1FFFFC
3FFFFC
7F87FC
7F02FC
7F42FC
7FEBFC
2FFFFC
0BFFFC
02F9B8
ENDCHAR
STARTCHAR adieresis
ENCODING 228
SWIDTH 596 0
DWIDTH 12 0
BBX 11 16 0 0
BITMAP
014050
0FD1FC
0FE2FC
0BD1F8
000000
005464
07FEFC
1FFFFC
3FFFFC
7F87FC
7F02FC
7F42FC
7FEBFC
2FFFFC
0BFFFC
02F9B8
ENDCHAR
STARTCHAR aring
ENCODING 229
SWIDTH 596 0
DWIDTH 12 0
BBX 11 15 0 0
BITMAP
002E00
006240
006240
002E00
005464
07FEFC
1FFFFC
3FFFFC
7F87FC
7F02FC
7F42FC
7FEBFC
2FFFFC
0BFFFC
02F9B8
ENDCHAR
STARTCHAR ae
ENCODING 230
SWIDTH 910 0
DWIDTH 18 0
BBX 18 11 0 0
BITMAP
01A901A400
1FFFAFFF40
3FFFFFFFC0
3FEFFFAFE0
1E03FD0BE0
0597FFFFD0
2FFFFFAA80
7E56FD0100
7E5BFFFFC0
7FFFBFFFC0
1FFD0BFE40
ENDCHAR
STARTCHAR ccedilla
ENCODING 231
SWIDTH 524 0
DWIDTH 10 0
BBX 10 15 0 -4
BITMAP
00AA40
07FFD0
1FFFF0
3FFFE0
7F8180
7F4000
7F4000
7FEBD0
2FFFF0
0BFFE0
01FF80
00FE00
005F00
00BE00
006800
ENDCHAR
STARTCHAR egrave
ENCODING 232
SWIDTH 573 0
DWIDTH 11 0
BBX 11 17 0 -1
BITMAP
014000
03F900
03FF80
01BF80
000600
00AA40
0BFFE0
1FFFF4
3FE7F8
7F42FC
7FFFF8
7FFFE4
7F8050
2FFBF0
1FFFF4
02FFE0
001500
ENDCHAR
STARTCHAR eacute
ENCODING 233
SWIDTH 573 0
DWIDTH 11 0
BBX 11 17 0 -1
BITMAP
000140
006FC0
02FFD0
01FE40
009000
00AA40
0BFFE0
1FFFF4
3FE7F8
7F42FC
7FFFF8
7FFFE4
7F8050
2FFBF0
1FFFF4
02FFE0
001500
ENDCHAR
STARTCHAR ecircumflex
ENCODING 234
SWIDTH 573 0
DWIDTH 11 0
BBX 11 17 0 -1
BITMAP
001400
06FF90
0FFFF0
0BEBE0
010040
00AA40
0BFFE0
1FFFF4
3FE7F8
7F42FC
7FFFF8
7FFFE4
7F8050
2FFBF0
1FFFF4
02FFE0
001500
ENDCHAR
STARTCHAR edieresis
ENCODING 235
SWIDTH 573 0
DWIDTH 11 0
BBX 11 17 0 -1
BITMAP
050150
2F87F0
2FC7F4
1F83F0
000000
00AA40
0BFFE0
1FFFF4
3FE7F8
7F42FC
7FFFF8
7FFFE4
7F8050
2FFBF0
1FFFF4
02FFE0
001500
ENDCHAR
STARTCHAR igrave
ENCODING 236
SWIDTH 255 0
DWIDTH 5 0
BBX 6 16 -1 0
BITMAP
1000
BE40
FFF0
6FE0
0190
0540
0FD0
1FD0
1FD0
1FD0
1FD0
1FD0
1FD0
1FD0
1FD0
0B80
ENDCHAR
STARTCHAR iacute
ENCODING 237
SWIDTH 255 0
DWIDTH 5 0
BBX 6 16 0 0
BITMAP
0050
1BF0
BFF0
7F90
2400
1500
3F40
7F40
7F40
7F40
7F40
7F40
7F40
7F40
7F40
2E00
ENDCHAR
STARTCHAR icircumflex
ENCODING 238
SWIDTH 255 0
DWIDTH 5 0
BBX 9 16 -2 0
BITMAP
015000
2FFE00
7FFF40
3E6F40
040500
015000
03F400
07F400
07F400
07F400
07F400
07F400
07F400
07F400
07F400
02E000
ENDCHAR
STARTCHAR idieresis
ENCODING 239
SWIDTH 255 0
DWIDTH 5 0
BBX 9 16 -2 0
BITMAP
140540
BE1FC0
FE2FC0
BD1F80
000000
015000
03F400
07F400
07F400
07F400
07F400
07F400
07F400
07F400
07F400
02F000
ENDCHAR
STARTCHAR eth
ENCODING 240
SWIDTH 585 0
DWIDTH 12 0
BBX 12 16 0 0
BITMAP
004A00
02FE00
02FE00
01FF80
02DBE0
0056F4
06FEF8
1FFFFC
3FFFFC
7F82FC
7F01FD
7F01FC
7F97FC
2FFFF4
0FFFE0
02FF40
ENDCHAR
STARTCHAR ntilde
ENCODING 241
SWIDTH 606 0
DWIDTH 12 0
BBX 12 16 0 0
BITMAP
005040
07FEF0
0BFFE0
075F80
000000
191900
3FBFD0
7FFFF4
7FFFFC
7F82FD
7F41FD
7F41FD
7F41FD
7F41FD
7F41FD
2E00B8
ENDCHAR
STARTCHAR ograve
ENCODING 242
SWIDTH 600 0
DWIDTH 12 0
BBX 12 16 0 0
BITMAP
004000
02F900
03FFC0
01BF80
000640
00AA40
07FFD0
1FFFF4
3FFFFC
7F41FD
7F00FD
7F41FD
7FD7FD
2FFFF8
0BFFF0
02FF80
ENDCHAR
STARTCHAR oacute
ENCODING 243
SWIDTH 600 0
DWIDTH 12 0
BBX 12 16 0 0
BITMAP
000140
006FC0
01FFD0
01FE40
009000
00AA40
07FFD0
1FFFF4
3FFFFC
7F41FD
7F00FD
7F41FD
7FD7FD
2FFFF8
0BFFF0
02FF80
ENDCHAR
STARTCHAR ocircumflex
ENCODING 244
SWIDTH 600 0
DWIDTH 12 0
BBX 12 16 0 0
BITMAP
001400
06FF90
0FFFF0
0BEBE0
010040
00AA40
07FFD0
1FFFF4
3FFFFC
7F41FD
7F00FD
7F41FD
7FD7FD
2FFFF8
0BFFF0
02FF80
ENDCHAR
STARTCHAR otilde
ENCODING 245
SWIDTH 600 0
DWIDTH 12 0
BBX 12 16 0 0
BITMAP
005040
07FAF0
0BFFE0
0B5F80
000000
00AA40
07FFD0
1FFFF4
3FFFFC
7F41FD
7F00FD
7F41FD
7FD7FD
2FFFF8
0BFFF0
02FF80
ENDCHAR
STARTCHAR odieresis
ENCODING 246
SWIDTH 600 0
DWIDTH 12 0
BBX 12 16 0 0
BITMAP
050150
1FC3F4
2FC7F4
1F83F4
000000
00AA40
07FFD0
1FFFF4
3FFFFC
7F41FD
7F00FD
7F41FD
7FD7FD
2FFFF8
0BFFF0
02FF80
ENDCHAR
STARTCHAR divide
ENCODING 247
SWIDTH 503 0
DWIDTH 10 0
BBX 10 11 0 0
BITMAP
01F400
02F800
01F800
005000
6FFFD0
7FFFE0
7FFFD0
005000
01F800
02F800
01F400
ENDCHAR
STARTCHAR oslash
ENCODING 248
SWIDTH 600 0
DWIDTH 12 0
BBX 12 17 0 -3
BITMAP
000090
0001F8
0003F8
00ABF4
07FFF0
1FFFF4
3FFFFC
7F82FD
7F00FD
7F41FD
7FD7FD
2FFFF8
0FFFF0
0FFF80
2FD000
3F8000
1F0000
ENDCHAR
STARTCHAR ugrave
ENCODING 249
SWIDTH 606 0
DWIDTH 12 0
BBX 12 16 0 0
BITMAP
004000
02F900
03FFC0
01BF80
000640
190064
3F40FD
7F41FD
7F41FD
7F41FD
7F41FD
3F81FD
3FEBFD
2FFFFD
0BFFFD
01B8B8
ENDCHAR
STARTCHAR uacute
ENCODING 250
SWIDTH 606 0
DWIDTH 12 0
BBX 12 16 0 0
BITMAP
000140
006FD0
00FFE0
00FF80
005400
190064
3F40FD
7F41FD
7F41FD
7F41FD
7F41FD
3F81FD
3FEBFD
2FFFFD
0BFFFD
01B8B8
ENDCHAR
STARTCHAR ucircumflex
ENCODING 251
SWIDTH 606 0
DWIDTH 12 0
BBX 12 16 0 0
BITMAP
001400
06FF90
0BFFF0
07EBE0
010040
190064
3F40FD
7F41FD
7F41FD
7F41FD
7F41FD
3F81FD
3FEBFD
2FFFFD
0BFFFD
01B8B8
ENDCHAR
STARTCHAR udieresis
ENCODING 252
SWIDTH 606 0
DWIDTH 12 0
BBX 12 16 0 0
BITMAP
054150
1FC3F4
1FC3F4
1F82F4
000000
190064
3F40FD
7F41FD
7F41FD
7F41FD
7F41FD
3F81FD
3FEBFD
2FFFFD
0BFFFD
01B8B8
ENDCHAR
STARTCHAR yacute
ENCODING 253
SWIDTH 604 0
DWIDTH 12 0
BBX 12 21 0 -5
BITMAP
000140
006FD0
01FFE0
00FF80
005400
190024
BF00BE
7F41FE
3FC2FD
1FE3F8
0BFBF4
07FFE0
02FFD0
00FFC0
007F40
00BF00
01FE00
02FC00
03F800
03F400
01A000
ENDCHAR
STARTCHAR thorn
ENCODING 254
SWIDTH 580 0
DWIDTH 12 0
BBX 11 21 0 -5
BITMAP
290000
3F0000
7F0000
7F0000
7F0000
7F1500
7FFF80
7FFFF0
7FFFF8
7F83FC
7F01FC
7F42FC
7FEBF8
7FFFF4
7FFFD0
7F6E40
7F0000
7F0000
7F0000
3F0000
150000
ENDCHAR
STARTCHAR ydieresis
ENCODING 255
SWIDTH 604 0
DWIDTH 12 0
BBX 12 21 0 -5
BITMAP
054050
0FD2F8
1FD3F8
0FC2F4
000000
190024
BF00BE
7F41FE
3FC2FD
1FE3F8
0BFBF4
07FFE0
02FFD0
00FFC0
007F40
00BF00
01FE00
02FC00
03F800
03F400
01A000
ENDCHAR
STARTCHAR dotlessi
ENCODING 305
SWIDTH 255 0
DWIDTH 5 0
BBX 5 11 0 0
BITMAP
1500
3F40
7F40
7F40
7F40
7F40
7F40
7F40
7F40
7F40
2E00
ENDCHAR
STARTCHAR Lslash
ENCODING 321
SWIDTH 687 0
DWIDTH 14 0
BBX 14 15 0 0
BITMAP
01A00000
03F40000
07F40000
07F40000
07F40000
07FA8000
07FFD000
7FFF8000
7FF40000
17F40000
07F40000
07F40000
07FFFF80
07FFFFD0
02FFFFC0
ENDCHAR
STARTCHAR lslash
ENCODING 322
SWIDTH 468 0
DWIDTH 9 0
BBX 9 16 0 0
BITMAP
015000
07F000
07F000
07F000
07F000
07F000
07FB80
0BFFC0
BFFE40
BFF400
1BF000
07F000
07F900
07FF00
03FF00
01BE00
ENDCHAR
STARTCHAR OE
ENCODING 338
SWIDTH 1092 0
DWIDTH 22 0
BBX 22 15 0 0
BITMAP
001AAAAAAA80
01FFFFFFFFD0
07FFFFFFFFD0
1FFEAFFFFF80
2FE00FD00000
7F800FD00000
7F400FFFF800
7F000FFFFC00
7F000FFFFC00
7F400FE55400
3FD00FD00000
1FF96FEAAA40
0BFFFFFFFFD0
02FFFFFFFFD0
006FFFFFFFC0
ENDCHAR
STARTCHAR oe
ENCODING 339
SWIDTH 944 0
DWIDTH 19 0
BBX 19 12 0 -1
BITMAP
00AA01A900
07FFDBFF80
1FFFFFFFE0
3FFFFF9BF4
7F82FF03F4
7F00FFFFF0
7F41FFAA90
7FD7FF4040
2FFFFFFFE0
0FFFFFFFE0
02FF86FF90
0004000000
ENDCHAR
STARTCHAR Scaron
ENCODING 352
SWIDTH 583 0
DWIDTH 12 0
BBX 11 20 0 0
BITMAP
010140
0FEBE0
0FFFE0
06FF80
001000
02BE40
0FFFE0
2FFFF4
3FDBE0
7F4040
3F9000
2FFE40
0FFFF4
01BFF8
0007FC
2D01FC
7F86FC
7FFFF8
1FFFF0
06FF80
ENDCHAR
STARTCHAR scaron
ENCODING 353
SWIDTH 489 0
DWIDTH 10 0
BBX 10 17 0 -1
BITMAP
140500
3FBF40
7FFF80
1BF900
004000
06A900
1FFF80
3FFF80
3F4600
3FE900
2FFF40
0BFFC0
146FD0
7FAFD0
7FFF80
1BFE00
004000
ENDCHAR
STARTCHAR Ydieresis
ENCODING 376
SWIDTH 686 0
DWIDTH 14 0
BBX 14 20 0 0
BITMAP
01405400
0BF0FD00
0BF1FD00
07E0FC00
00000000
19000A40
BF001FD0
7F803FD0
3FD0BF80
1FF1FF00
0BFAFD00
03FFF800
01FFF000
00BFD000
003F8000
003F8000
003F8000
003F8000
003F8000
002F4000
ENDCHAR
STARTCHAR Zcaron
ENCODING 381
SWIDTH 643 0
DWIDTH 13 0
BBX 13 20 0 0
BITMAP
01405000
07FBF000
0BFFF400
01BF9000
00040000
2AAAA900
7FFFFF00
7FFFFF00
2AABFD00
000BF800
001FF000
003FD000
00BF8000
01FE0000
07FD0000
0FF40000
2FF55500
7FFFFF40
7FFFFF40
2FFFFF00
ENDCHAR
STARTCHAR zcaron
ENCODING 382
SWIDTH 586 0
DWIDTH 12 0
BBX 12 16 0 0
BITMAP
014040
0BEBE0
0FFFF0
02FF90
001400
1AAA90
3FFFF8
3FFFFC
2FFFF4
007FD0
01FF40
07FD00
1FFAA4
7FFFFC
7FFFFD
2FFFF8
ENDCHAR
STARTCHAR florin
ENCODING 402
SWIDTH 529 0
DWIDTH 11 0
BBX 11 20 0 -5
BITMAP
0006A0
002FF4
007FF0
00BF90
00FD00
0BFFE0
1FFFF4
1FFFF0
06FE90
02FC00
02FC00
02F800
03F800
03F800
03F400
07F400
6FF000
FFE000
FF8000
550000
ENDCHAR
STARTCHAR circumflex
ENCODING 710
SWIDTH 603 0
DWIDTH 12 0
BBX 8 5 2 11
BITMAP
0140
6FF9
FFFF
BEBE
1004
ENDCHAR
STARTCHAR caron
ENCODING 711
SWIDTH 600 0
DWIDTH 12 0
BBX 8 5 2 11
BITMAP
1004
BEBE
FFFF
2FF9
0140
ENDCHAR
STARTCHAR dotaccent
ENCODING 729
SWIDTH 285 0
DWIDTH 6 0
BBX 4 4 1 14
BITMAP
24
BE
BE
7D
ENDCHAR
STARTCHAR ring
ENCODING 730
SWIDTH 378 0
DWIDTH 8 0
BBX 6 6 1 13
BITMAP
0500
3F80
A1D0
A0D0
7BC0
1A00
ENDCHAR
STARTCHAR ogonek
ENCODING 731
SWIDTH 570 0
DWIDTH 11 0
BBX 5 5 3 -4
BITMAP
1900
7F40
7500
7F40
1A00
ENDCHAR
STARTCHAR tilde
ENCODING 732
SWIDTH 584 0
DWIDTH 12 0
BBX 9 4 1 12
BITMAP
054100
2FEF40
7FFF40
39BD00
ENDCHAR
STARTCHAR endash
ENCODING 8211
SWIDTH 561 0
DWIDTH 11 0
BBX 11 3 0 4
BITMAP
7FFFF8
BFFFFC
7FFFF8
ENDCHAR
STARTCHAR emdash
ENCODING 8212
SWIDTH 693 0
DWIDTH 14 0
BBX 14 3 0 4
BITMAP
7FFFFFD0
BFFFFFE0
7FFFFFD0
ENDCHAR
STARTCHAR quoteleft
ENCODING 8216
SWIDTH 237 0
DWIDTH 5 0
BBX 5 8 0 7
BITMAP
0600
1F00
3D00
7D00
7F00
7F40
7F00
0400
ENDCHAR
STARTCHAR quoteright
ENCODING 8217
SWIDTH 237 0
DWIDTH 5 0
BBX 5 7 0 8
BITMAP
2900
7F40
7F40
7F00
1F00
2D00
7800
ENDCHAR
STARTCHAR quotesinglbase
ENCODING 8218
SWIDTH 237 0
DWIDTH 5 0
BBX 5 7 0 -3
BITMAP
2900
7F40
7F40
7F00
1F00
2D00
7800
ENDCHAR
STARTCHAR quotedblleft
ENCODING 8220
SWIDTH 482 0
DWIDTH 10 0
BBX 9 8 0 7
BITMAP
060180
1F07C0
3D0F00
7D1F40
7F2FC0
7F6FC0
7F1FC0
040100
ENDCHAR
STARTCHAR quotedblright
ENCODING 8221
SWIDTH 482 0
DWIDTH 10 0
BBX 9 7 0 8
BITMAP
290A40
7F6FC0
7F6FC0
7F1FC0
1F0780
2D0B40
782E00
ENDCHAR
STARTCHAR quotedblbase
ENCODING 8222
SWIDTH 482 0
DWIDTH 10 0
BBX 9 7 0 -3
BITMAP
290A40
7F6FC0
7F6FC0
7F1FC0
1F0780
2D0B40
782D00
ENDCHAR
STARTCHAR dagger
ENCODING 8224
SWIDTH 527 0
DWIDTH 11 0
BBX 11 19 0 -4
BITMAP
01B800
01FC00
01FC00
01FC00
16FC40
BFFFF0
BFFFF4
7FFFE0
01FC00
01FC00
01FC00
01FC00
01FC00
01FC00
01FC00
01FC00
01FC00
01FC00
00A400
ENDCHAR
STARTCHAR daggerdbl
ENCODING 8225
SWIDTH 527 0
DWIDTH 11 0
BBX 11 19 0 -4
BITMAP
01B800
01FC00
01FC00
01FC00
16FC40
BFFFF0
BFFFF4
7FFFE0
01FC00
01FC00
01FC00
7FFFF0
BFFFF4
7FFFF0
01FC00
01FC00
01FC00
01FC00
00A400
ENDCHAR
STARTCHAR bullet
ENCODING 8226
SWIDTH 342 0
DWIDTH 7 0
BBX 7 7 0 3
BITMAP
0100
2FD0
7FF0
7FF4
7FF4
3FE0
0640
ENDCHAR
STARTCHAR ellipsis
ENCODING 8230
SWIDTH 911 0
DWIDTH 18 0
BBX 18 4 0 0
BITMAP
2901A40680
7F42FC0FE0
7F42FC0FE0
7E01F80BD0
ENDCHAR
STARTCHAR perthousand
ENCODING 8240
SWIDTH 1223 0
DWIDTH 24 0
BBX 23 17 1 -1
BITMAP
000005000000
1A400F000000
7FE01E000000
FEF43C000000
F0B4B4000000
F0B4F0000000
FEF6D0000000
7FE3C0000000
1A4B45400540
001E2FF03FE0
002D7FF8BFF4
0078B87CF4B8
00B4B47CF0B8
01E0BDBCF9F4
02D03FF47FF0
07801FE02F90
010000000000
ENDCHAR
STARTCHAR guilsinglleft
ENCODING 8249
SWIDTH 383 0
DWIDTH 8 0
BBX 8 11 0 0
BITMAP
0010
00FC
03FD
0FF8
3FE0
BF80
7FD0
2FF4
07FC
01FD
0074
ENDCHAR
STARTCHAR guilsinglright
ENCODING 8250
SWIDTH 383 0
DWIDTH 8 0
BBX 8 11 0 0
BITMAP
1400
7E00
BF80
3FE0
0FF8
03FD
0BFC
2FF4
7FD0
BF40
2D00
ENDCHAR
STARTCHAR fraction
ENCODING 8260
SWIDTH 433 0
DWIDTH 9 0
BBX 10 17 1 -1
BITMAP
000180
0002D0
000780
000B40
001E00
002C00
007800
00F000
01E000
03C000
074000
0F0000
2D0000
3C0000
B40000
E00000
500000
ENDCHAR
STARTCHAR Euro
ENCODING 8364
SWIDTH 612 0
DWIDTH 12 0
BBX 12 16 0 0
BITMAP
000554
007FFE
02FFFE
03FFFD
0BF800
1FF550
BFFFF8
6FEAA4
1FD000
BFFFF8
BFFFF4
0BF000
07FAA4
02FFFE
00FFFE
002FFD
ENDCHAR
STARTCHAR trademark
ENCODING 8482
SWIDTH 840 0
DWIDTH 17 0
BBX 16 9 0 4
BITMAP
6AA96409
BFFDBC2F
6BE9FEBF
07C0FFFF
07C0FFFF
07C0FBEF
07C0F95F
07C0B81F
01001004
ENDCHAR
STARTCHAR minus
ENCODING 8722
SWIDTH 581 0
DWIDTH 12 0
BBX 11 3 0 4
BITMAP
7FFFF8
7FFFFC
7FFFFC
ENDCHAR
STARTCHAR f_f
ENCODING 64256
SWIDTH 803 0
DWIDTH 16 0
BBX 16 16 0 0
BITMAP
00190064
01FF07FC
07FF1FFD
0BFE2FF8
0FE02F80
1FE57FD4
BFFFFFFE
BFFFFFFE
7FFFFFFD
0FE02F80
0FE02F80
0FE02F80
0FE02F80
0FE02F80
0FE02F80
07D01F40
ENDCHAR
STARTCHAR fi
ENCODING 64257
SWIDTH 709 0
DWIDTH 14 0
BBX 14 16 0 0
BITMAP
00150540
01FF0FD0
07FF0FD0
0BFE0BC0
0FE00000
1FE50540
BFFF8FD0
BFFF8FD0
7FFF4FD0
0FE00FD0
0FE00FD0
0FE00FD0
0FE00FD0
0FE00FD0
0FE00FD0
0BD00BC0
ENDCHAR
STARTCHAR fl
ENCODING 64258
SWIDTH 774 0
DWIDTH 15 0
BBX 15 16 0 0
BITMAP
00150540
01FF1FC0
07FF1FD0
0BFE1FD0
0FE01FD0
1FE51FD0
BFFF9FD0
BFFF9FD0
7FFF5FD0
0FE01FD0
0FE01FD0
0FE01FD0
0FE01FE4
0FE00FFC
0FE00FFC
0BD006FC
ENDCHAR
STARTCHAR f_f_i
ENCODING 64259
SWIDTH 1059 0
DWIDTH 21 0
BBX 21 16 0 0
BITMAP
001900640500
01FF07FC3F40
07FF1FFD3F40
0BFE2FF82F00
0FE02F800000
1FE57FD41500
BFFFFFFE3F40
BFFFFFFE3F40
7FFFFFFD3F40
0FE02F803F40
0FE02F803F40
0FE02F803F40
0FE02F803F40
0FE02F803F40
0FE02F803F40
07D01F402F00
ENDCHAR
STARTCHAR .notdef
ENCODING -1
SWIDTH 500 0
DWIDTH 10 0
BBX 1 1 0 0
BITMAP
00
ENDCHAR
STARTCHAR .null
ENCODING -1
SWIDTH 0 0
DWIDTH 0 0
BBX 1 1 0 0
BITMAP
00
ENDCHAR
STARTCHAR nonmarkingreturn
ENCODING -1
SWIDTH 333 0
DWIDTH 7 0
BBX 1 1 0 0
BITMAP
00
ENDCHAR
STARTCHAR f_t
ENCODING -1
SWIDTH 814 0
DWIDTH 16 0
BBX 16 16 0 0
BITMAP
00190000
01FF0000
07FF1F80
0BFE2FC0
0FE02FC0
1FE56FD5
BFFFFFFF
BFFFFFFF
7FFFFFFE
0FE02FC0
0FE02FC0
0FE02FC0
0FE02FD4
0FE01FFD
0FE00BFD
07D002FC
ENDCHAR
STARTCHAR t_t
ENCODING -1
SWIDTH 794 0
DWIDTH 16 0
BBX 16 14 0 0
BITMAP
0BD02F40
0FE03F80
0FE03F80
1FE57F94
BFFFFFFD
BFFFFFFE
7FFFFFFD
0FE03F80
0FE03F80
0FE03F80
0BF43F90
0BFF2FFC
03FF1FFC
01BE06F8
ENDCHAR
STARTCHAR l_l
ENCODING -1
SWIDTH 626 0
DWIDTH 13 0
BBX 13 16 0 0
BITMAP
15014000
3F4BE000
7F4BE000
7F4BE000
7F4BE000
7F4BE000
7F4BE000
7F4BE000
7F4BE000
7F4BE000
7F4BE000
7F4BE000
3F8BF900
3FEBFF00
2FE3FF40
0BD0BE00
ENDCHAR
STARTCHAR j_j
ENCODING -1
SWIDTH 521 0
DWIDTH 10 0
BBX 13 21 -3 -5
BITMAP
00140500
00FC2F40
01FD2F80
00FC2F40
00000000
00540500
00FC2F80
01FD2F80
01FD2F80
01FD2F80
01FD2F80
01FD2F80
01FD2F80
01FD2F80
01FD2F80
01FD2F80
02FC3F80
6FF9BF40
BFF6FF00
BFD2FD00
2901A400
ENDCHAR
ENDFONT
